<svg width="78" height="40" viewBox="0 0 78 40" fill="none" xmlns="http://www.w3.org/2000/svg">
    <path d="M25.4478 21.2149C25.4478 19.6442 24.2495 17.8674 22.2264 17.8674C19.5426 17.8674 18.6736 20.2072 18.6736 21.2149H25.4478ZM36.3522 32.2984L38.957 32.3802C40.86 32.4217 41.809 33.0675 41.809 34.4785C41.809 36.0916 40.1142 37.0599 37.6786 37.0599C35.0329 37.0599 33.3811 36.0097 33.3811 34.2774C33.3811 32.9452 34.0819 32.3802 34.6625 32.1377C35.199 32.2195 35.7776 32.26 36.3522 32.2984ZM37.4714 17.8674C39.5766 17.8674 40.899 19.2794 40.899 21.1361C40.899 23.0696 39.6187 24.4785 37.5115 24.4785C35.5304 24.4785 34.1669 23.0696 34.1669 21.1361C34.1669 19.2804 35.4053 17.8674 37.4714 17.8674ZM7.18856 19.1167C9.62513 19.1167 10.7003 17.5056 10.7003 15.7732C10.7003 13.9186 9.502 12.4692 7.18856 12.4692H3.59378V19.1177H7.18856V19.1167ZM63.7451 25.9319C64.655 26.8193 66.2667 27.4247 67.9175 27.4247C69.5702 27.4247 70.5212 26.8587 70.5212 25.9319C70.5212 25.002 70.0247 24.5189 66.8864 23.9994C64.5289 23.5941 62.1764 22.546 62.1764 19.7241C62.1764 16.701 65.3558 15.2092 68.1647 15.2092C70.5632 15.2092 72.5443 15.6934 73.9918 16.7415L72.213 18.9984C71.4722 18.4738 70.1068 17.8684 68.2888 17.8684C66.512 17.8684 65.6881 18.5143 65.6881 19.3208C65.6881 20.4478 66.4699 20.7308 68.5391 21.0966C71.8025 21.6212 74.3642 22.4651 74.3642 25.6509C74.3642 28.2707 71.6364 30.3265 67.9184 30.3265C65.2757 30.3265 63.0023 29.6816 61.6809 28.2707L63.7451 25.9319ZM46.5179 15.4902H50.1968V24.2774C50.1968 26.0916 51.2689 27.1003 52.9227 27.1003C55.154 27.1003 56.3923 25.2032 56.3923 23.3526V15.4902H60.0662V29.8403H56.5555L56.4734 28.2697C55.6475 29.2753 54.2831 30.1637 52.0948 30.1637C48.4159 30.1637 46.5169 27.7825 46.5169 24.3178V15.4902H46.5179ZM28.7102 27.7027C28.3809 28.108 26.605 30.3255 22.3095 30.3255C18.2592 30.3255 14.9567 27.6653 14.9567 22.6269C14.9567 18.7154 17.7637 15.2082 22.1843 15.2082C26.7692 15.2082 29.0856 18.392 29.0856 22.7451C29.0856 23.0696 29.0856 23.395 29.0426 23.7124H18.6736C18.8388 25.6499 20.1612 27.3004 22.5567 27.3004C24.7891 27.3004 25.9863 26.4565 26.8963 25.6509L28.7102 27.7027ZM0 9.68366H7.35274C12.4341 9.68366 14.5003 12.9917 14.5003 15.6924C14.5003 18.1898 13.302 20.3285 10.6572 21.2553L15.0789 29.8413H10.8634L7.06243 21.8991H3.59378V29.8413H0V9.68366ZM37.5535 15.2082C33.7936 15.2082 30.8184 17.545 30.8184 21.1361C30.8184 22.9099 31.398 24.3178 32.3881 25.286C31.3159 26.0522 30.7353 27.1003 30.7353 28.3091C30.7353 29.5583 31.1918 30.4468 31.9356 31.0522C30.5301 31.7758 29.7043 33.2677 29.7043 34.6776C29.7043 38.3071 33.0508 40 37.3052 40C41.5187 40 45.4859 37.9442 45.4859 34.152C45.4859 31.0097 43.2135 29.5189 39.7458 29.437L36.6466 29.3552C35.0769 29.3178 34.208 28.8721 34.208 27.8644C34.208 27.4227 34.3722 27.0204 34.7876 26.696C35.6135 26.98 36.5625 27.1397 37.5966 27.1397C41.4826 27.1397 44.2886 24.7605 44.2886 21.1735C44.2886 20.0051 43.9582 19.0368 43.4637 18.1888L45.4458 16.699L43.5448 14.5199L41.2734 16.1755C40.1142 15.5296 38.7918 15.2082 37.5535 15.2082Z"
          fill="black"/>
    <path d="M41.7979 6.6119C41.7979 8.3614 43.2093 9.77721 44.9552 9.77721C46.698 9.77721 48.1125 8.3614 48.1125 6.6119C48.1125 4.8624 46.698 3.44243 44.9552 3.44243C43.2093 3.44243 41.7979 4.8624 41.7979 6.6119Z"
          fill="#CE181E"/>
    <path d="M35.9619 1.31191V8.30807C34.167 7.97857 32.5303 7.03254 31.0227 4.3491L28.0326 5.94805C31.1539 11.5029 35.3062 11.8061 38.5116 11.8061H39.3625V0L35.9619 1.31191Z"
          fill="black"/>
    <path d="M74.7205 15.1032H75.0158V13.3536H75.7496V13.1009H73.9857V13.3536H74.7205V15.1032ZM76.0018 15.1032H76.2771L76.3472 13.578L76.9168 14.5109H77.064L77.6426 13.5669L77.7116 15.1032H77.9999L77.9038 13.1009H77.6286L77.0029 14.143L76.3782 13.1009H76.0959L76.0018 15.1032Z"
          fill="black"/>
</svg>